#!OML:ASF H:\ManfredETheater\Project 1\Capture day 1\Session 1\subject.ASF
:FULLY-SPECIFIED
:DEGREES
106
root -1.01849 20.6124 13.4876 -165.226 -4.18796 -175.633
lowerback 16.9657 1.57776 4.18239
upperback 1.74563 2.70896 3.59953
thorax -7.61489 1.04102 0.891229
lowerneck -15.282 -2.99352 -3.05865
upperneck 3.34971 -3.57926 0.0673887
head 3.9094 -1.88572 0.27469
rclavicle -3.1408e-014 -5.80451e-014
rhumerus -44.8231 10.0721 -90.7451
rradius 95.4124
rwrist -3.15478
rhand -27.7397 6.43226
rfingers 7.12502
rthumb -1.13447 -23.5445
lclavicle -3.1408e-014 -5.80451e-014
lhumerus -59.8349 -18.4953 99.2061
lradius 92.5991
lwrist 11.7488
lhand -26.6517 -18.4952
lfingers 7.12502
lthumb -0.0837303 11.4845
rfemur -26.7028 -9.51647 31.8853
rtibia 54.6573
rfoot -29.5742 -12.5364
rtoes -34.7284
lfemur -65.1547 3.06452 -15.1186
ltibia 95.5094
lfoot -15.6169 -5.59981
ltoes -9.65477
107
root -1.00199 20.7415 13.0304 -165.209 -4.4612 -175.596
lowerback 16.5032 1.71054 4.25022
upperback 1.63096 2.89329 3.517
thorax -7.47388 1.14032 0.730761
lowerneck -15.3142 -3.22201 -3.15361
upperneck 3.37519 -3.87925 0.331642
head 3.93941 -2.01997 0.354794
rclavicle -3.97569e-015 -2.62396e-014
rhumerus -45.1534 10.7823 -91.0559
rradius 97.0523
rwrist -2.52497
rhand -27.3509 7.58008
rfingers 7.12502
rthumb -0.75902 -22.3983
lclavicle -3.97569e-015 -2.62396e-014
lhumerus -61.4397 -18.8265 99.2803
lradius 93.6553
lwrist 11.764
lhand -26.0891 -18.4556
lfingers 7.12502
lthumb 0.459681 11.5237
rfemur -23.8662 -9.6363 31.6525
rtibia 52.2243
rfoot -28.1175 -11.5701
rtoes -35.9935
lfemur -66.1408 2.5577 -15.3455
ltibia 92.6853
lfoot -16.0831 -6.1669
ltoes -9.62888
108
root -0.98679 20.874 12.5688 -165.275 -4.78521 -175.563
lowerback 16.1015 1.79859 4.32845
upperback 1.54409 3.01754 3.43328
thorax -7.3351 1.20861 0.577934
lowerneck -15.3571 -3.43042 -3.24386
upperneck 3.42103 -4.15349 0.609488
head 3.98006 -2.14046 0.440314
rclavicle 2.78299e-015 -7.15625e-015
rhumerus -45.5114 11.346 -91.3865
rradius 98.4872
rwrist -1.94157
rhand -27.0459 8.69338
rfingers 7.12502
rthumb -0.464404 -21.2859
lclavicle 2.78299e-015 -7.15625e-015
lhumerus -62.8825 -18.9257 99.2758
lradius 94.5474
lwrist 11.737
lhand -25.509 -18.4171
lfingers 7.12502
lthumb 1.01997 11.5602
rfemur -20.9877 -9.62731 31.3981
rtibia 49.7739
rfoot -26.2718 -10.4722
rtoes -37.2022
lfemur -66.7035 2.05299 -15.5719
ltibia 89.5235
lfoot -16.4064 -6.83386
ltoes -9.63865
109
root -0.97252 21.0081 12.1034 -165.402 -5.1103 -175.513
lowerback 15.7328 1.86194 4.40701
upperback 1.48599 3.10533 3.35566
thorax -7.18339 1.25816 0.440575
lowerneck -15.4283 -3.6191 -3.33166
upperneck 3.49945 -4.4012 0.894626
head 4.03913 -2.24716 0.52925
rclavicle 2.3059e-014 1.03368e-014
rhumerus -45.8839 11.7725 -91.7362
rradius 99.6855
rwrist -1.46658
rhand -26.8713 9.69089
rfingers 7.12502
rthumb -0.295753 -20.2887
lclavicle 2.3059e-014 1.03368e-014
lhumerus -64.1301 -18.8095 99.1971
lradius 95.2523
lwrist 11.6484
lhand -24.939 -18.368
lfingers 7.12502
lthumb 1.57046 11.606
rfemur -18.1372 -9.41119 31.1555
rtibia 47.3689
rfoot -24.0194 -9.25902
rtoes -38.2054
lfemur -66.8722 1.61796 -15.7899
ltibia 86.0867
lfoot -16.5028 -7.60675
ltoes -9.63794
110
root -0.959263 21.1423 11.6351 -165.56 -5.40915 -175.431
lowerback 15.3737 1.91128 4.48968
upperback 1.44722 3.17183 3.28819
thorax -7.01616 1.29671 0.317611
lowerneck -15.6245 -3.79168 -3.41985
upperneck 4.02597 -4.62699 1.23717
head 3.80373 -2.33635 0.566005
rclavicle 3.45885e-014 -7.95139e-015
rhumerus -46.2674 12.0755 -92.0986
rradius 100.625
rwrist -1.14713
rhand -26.8597 10.4989
rfingers 7.12502
rthumb -0.284601 -19.4807
lclavicle 3.45885e-014 -7.95139e-015
lhumerus -65.1624 -18.5045 99.054
lradius 95.7611
lwrist 11.4918
lhand -24.4054 -18.3161
lfingers 7.12502
lthumb 2.08581 11.6534
rfemur -15.4046 -8.95137 30.9605
rtibia 45.0785
rfoot -21.3254 -8.01392
rtoes -38.9901
lfemur -66.6925 1.27426 -15.9819
ltibia 82.4453
lfoot -16.3662 -8.43477
ltoes -9.81113
111
root -0.948055 21.2758 11.1631 -165.758 -5.62225 -175.291
lowerback 15.0287 1.96699 4.59066
upperback 1.43002 3.24598 3.23263
thorax -6.83245 1.33768 0.196672
lowerneck -15.7733 -3.94516 -3.50194
upperneck 4.22097 -4.82637 1.51955
head 3.90074 -2.41679 0.645001
rclavicle -4.73108e-014 -3.10104e-014
rhumerus -46.668 12.2669 -92.4654
rradius 101.294
rwrist -1.01466
rhand -27.0136 11.073
rfingers 7.12502
rthumb -0.433216 -18.9064
lclavicle -4.73108e-014 -3.10104e-014
lhumerus -65.9719 -18.05 98.8598
lradius 96.0818
lwrist 11.2615
lhand -23.9298 -18.2654
lfingers 7.12502
lthumb 2.5452 11.6992
rfemur -12.8321 -8.2246 30.8357
rtibia 42.9796
rfoot -18.1752 -6.791
rtoes -39.4366
lfemur -66.1627 1.05913 -16.1198
ltibia 78.6818
lfoot -15.9336 -9.26203
ltoes -9.98544
112
root -0.939081 21.4067 10.689 -165.957 -5.7573 -175.092
lowerback 14.6767 2.02541 4.71836
upperback 1.41688 3.32542 3.18936
thorax -6.63899 1.38026 0.0743912
lowerneck -15.9702 -4.0793 -3.57993
upperneck 4.48814 -4.99826 1.78643
head 4.02734 -2.4832 0.718825
rclavicle 4.77083e-015 3.97569e-014
rhumerus -47.0796 12.3664 -92.8228
rradius 101.677
rwrist -1.09755
rhand -27.3147 11.3994
rfingers 7.12502
rthumb -0.723989 -18.5791
lclavicle 4.77083e-015 3.97569e-014
lhumerus -66.5615 -17.4903 98.6373
lradius 96.2388
lwrist 10.9915
lhand -23.5425 -18.22
lfingers 7.12502
lthumb 2.91915 11.7398
rfemur -10.5346 -7.29338 30.8031
rtibia 41.1717
rfoot -14.5322 -5.72437
rtoes -39.5431
lfemur -65.3668 0.940587 -16.1832
ltibia 74.8918
lfoot -15.2416 -10.0296
ltoes -10.1923
113
root -0.932529 21.5331 10.2135 -166.142 -5.81195 -174.828
lowerback 14.3122 2.08512 4.88383
upperback 1.39641 3.41072 3.15948
thorax -6.44429 1.42454 -0.0542254
lowerneck -16.2011 -4.1923 -3.6529
upperneck 4.82151 -5.14129 2.03731
head 4.17933 -2.53476 0.787722
rclavicle 6.75868e-015 1.27222e-014
rhumerus -47.5064 12.3897 -93.1601
rradius 101.769
rwrist -1.36747
rhand -27.718 11.4905
rfingers 7.12502
rthumb -1.11351 -18.4863
lclavicle 6.75868e-015 1.27222e-014
lhumerus -66.9462 -16.8687 98.4097
lradius 96.2649
lwrist 10.7176
lhand -23.2594 -18.2015
lfingers 7.12502
lthumb 3.19261 11.7544
rfemur -8.593 -6.2414 30.8738
rtibia 39.7678
rfoot -10.4809 -4.89466
rtoes -39.1616
lfemur -64.3583 0.891038 -16.1433
ltibia 71.1806
lfoot -14.3606 -10.6728
ltoes -10.4114
114
root -0.928594 21.6536 9.7374 -166.305 -5.79566 -174.51
lowerback 13.9353 2.14014 5.08536
upperback 1.36137 3.49414 3.1416
thorax -6.25621 1.46686 -0.188274
lowerneck -16.4429 -4.28611 -3.7308
upperneck 5.20502 -5.25774 2.27801
head 4.34855 -2.57258 0.855636
rclavicle 3.37934e-014 9.85972e-014
rhumerus -47.9531 12.3484 -93.4622
rradius 101.577
rwrist -1.80409
rhand -28.1435 11.399
rfingers 7.12502
rthumb -1.5245 -18.5753
lclavicle 3.37934e-014 9.85972e-014
lhumerus -67.1407 -16.2266 98.2018
lradius 96.2071
lwrist 10.4983
lhand -23.0881 -18.1949
lfingers 7.12502
lthumb 3.35805 11.7584
rfemur -7.07654 -5.18414 31.0311
rtibia 38.8866
rfoot -6.25089 -4.26766
rtoes -38.3186
lfemur -63.1873 0.872478 -15.9942
ltibia 67.655
lfoot -13.388 -11.1243
ltoes -10.585
115
root -0.926944 21.7663 9.26163 -166.44 -5.72493 -174.157
lowerback 13.5435 2.18174 5.31191
upperback 1.30992 3.56217 3.13236
thorax -6.07616 1.50107 -0.322735
lowerneck -16.6875 -4.35242 -3.80385
upperneck 5.61893 -5.3387 2.50088
head 4.52684 -2.59293 0.920016
rclavicle 3.18055e-015 5.56597e-015
rhumerus -48.4211 12.2452 -93.7163
rradius 101.123
rwrist -2.3224
rhand -28.4943 11.1456
rfingers 7.12502
rthumb -1.86332 -18.826
lclavicle 3.18055e-015 5.56597e-015
lhumerus -67.1575 -15.6 98.033
lradius 96.1176
lwrist 10.3847
lhand -23.0175 -18.1827
lfingers 7.12502
lthumb 3.4262 11.7696
rfemur -6.03679 -4.23334 31.2467
rtibia 38.644
rfoot -2.26433 -3.71701
rtoes -37.0909
lfemur -61.9039 0.848845 -15.7451
ltibia 64.4212
lfoot -12.4101 -11.3663
ltoes -10.7714
116
root -0.927726 21.8699 8.78602 -166.619 -5.68154 -173.814
lowerback 13.2073 2.17419 5.55955
upperback 1.26069 3.56886 3.12712
thorax -5.92553 1.50356 -0.45503
lowerneck -16.9105 -4.38895 -3.87252
upperneck 6.02932 -5.38222 2.70758
head 4.69962 -2.59546 0.9827
rclavicle 1.15295e-014 2.54444e-014
rhumerus -48.9115 12.0828 -93.913
rradius 100.427
rwrist -2.84364
rhand -28.7101 10.7971
rfingers 7.12502
rthumb -2.07175 -19.1726
lclavicle 1.15295e-014 2.54444e-014
lhumerus -67.0092 -15.0168 97.9216
lradius 96.0425
lwrist 10.4117
lhand -23.0316 -18.1707
lfingers 7.12502
lthumb 3.41261 11.7817
rfemur -5.40812 -3.54746 31.4718
rtibia 39.1154
rfoot 1.01897 -3.13387
rtoes -35.5848
lfemur -60.461 0.727589 -15.4318
ltibia 61.5648
lfoot -11.4942 -11.4185
ltoes -10.9082
117
root -0.929346 21.9629 8.31221 -166.81 -5.64116 -173.503
lowerback 12.8977 2.12935 5.77868
upperback 1.21172 3.52241 3.12176
thorax -5.7936 1.48047 -0.563354
lowerneck -17.1135 -4.3904 -3.92096
upperneck 6.41673 -5.38321 2.88452
head 4.85981 -2.57869 1.03781
rclavicle 1.98785e-015 2.3059e-014
rhumerus -49.4223 11.8566 -94.0424
rradius 99.5223
rwrist -3.26995
rhand -28.7266 10.3722
rfingers 7.12502
rthumb -2.08763 -19.5973
lclavicle 1.98785e-015 2.3059e-014
lhumerus -66.6975 -14.5001 97.8804
lradius 96.0188
lwrist 10.5835
lhand -23.1103 -18.1401
lfingers 7.12502
lthumb 3.3366 11.8136
rfemur -5.22958 -3.14209 31.6728
rtibia 40.333
rfoot 3.30636 -2.52087
rtoes -34.1018
lfemur -58.9306 0.540511 -15.0965
ltibia 59.1495
lfoot -10.6592 -11.3225
ltoes -11.0459
118
root -0.9311 22.044 7.84118 -167.026 -5.61006 -173.263
lowerback 12.6368 2.04527 5.92939
upperback 1.16687 3.41722 3.10702
thorax -5.69116 1.42998 -0.635904
lowerneck -17.2811 -4.35501 -3.9422
upperneck 6.75603 -5.34077 3.03065
head 4.99659 -2.54269 1.08466
rclavicle 1.33186e-014 5.32743e-014
rhumerus -49.9571 11.5616 -94.1011
rradius 98.4411
rwrist -3.53081
rhand -28.5352 9.8903
rfingers 7.12502
rthumb -1.90281 -20.081
lclavicle 1.33186e-014 5.32743e-014
lhumerus -66.2349 -14.0645 97.9161
lradius 96.0789
lwrist 10.87
lhand -23.2306 -18.1042
lfingers 7.12502
lthumb 3.22036 11.8512
rfemur -5.45852 -3.03714 31.8014
rtibia 42.2614
rfoot 4.44702 -2.00802
rtoes -32.9563
lfemur -57.314 0.288369 -14.7984
ltibia 57.2002
lfoot -9.89672 -11.1627
ltoes -11.2367
